# xmcd
#
# Track frame offsets: 
#        150
#        14411
#        27855
#        47792
#        65842
#        77791
#        94811
#        112940
#        126136
#
# Disc length: 1900 seconds
#
# Revision: 0
# Processed by: cddbd v1.5.2PL0 Copyright (c) Steve Scherf et al.
# Submitted via: ExactAudioCopy v0.99pb5
#
DISCID=72076a09
DTITLE=The Venice Bluecats - Perfect Example
DYEAR=2007
DGENRE=Blues
TTITLE0=Statesboro Blues
TTITLE1=Just A Little Bit
TTITLE2=Perfect Example
TTITLE3=Blues In 2S
TTITLE4=I Ain't Superstitious
TTITLE5=Big Boss Man
TTITLE6=Rock Me Baby
TTITLE7=Dust My Broom
TTITLE8=(I'm A) King Bee
EXTD=
EXTT0=
EXTT1=
EXTT2=
EXTT3=
EXTT4=
EXTT5=
EXTT6=
EXTT7=
EXTT8=
PLAYORDER=
